<?xml version="1.0" encoding="utf-8"?>
<!-- Generator: Adobe Illustrator 17.0.0, SVG Export Plug-In . SVG Version: 6.00 Build 0)  -->
<!DOCTYPE svg PUBLIC "-//W3C//DTD SVG 1.1//EN" "http://www.w3.org/Graphics/SVG/1.1/DTD/svg11.dtd">
<svg version="1.1" id="Layer_1" xmlns="http://www.w3.org/2000/svg" xmlns:xlink="http://www.w3.org/1999/xlink" x="0px" y="0px"
	 width="657.143px" height="908.571px" viewBox="0 0 657.143 908.571" enable-background="new 0 0 657.143 908.571"
	 xml:space="preserve">
<rect x="30" y="35.89" fill="#1D1D1B" stroke="#FFFFFF" stroke-miterlimit="10" width="595.28" height="841.89"/>
<text transform="matrix(1 0 0 1 259.3485 671.9597)" fill="#F29100" font-family="'DeathFuckingMetal'" font-size="557.4546">!</text>
<g>
	<path fill="none" stroke="#009EE2" stroke-miterlimit="10" d="M491.516,788.475c0,0,11.628,13.953,31.395,0
		c19.767-13.953,29.07-9.302,37.209,0c8.14,9.302,30.922-1.302,30.922-1.302"/>
	<path fill="none" stroke="#009EE2" stroke-miterlimit="10" d="M491.516,800.204c0,0,11.628,13.953,31.395,0
		c19.767-13.953,29.07-9.302,37.209,0s30.922-1.302,30.922-1.302"/>
	<path fill="none" stroke="#009EE2" stroke-miterlimit="10" d="M491.516,815.212c0,0,11.628,13.953,31.395,0
		c19.767-13.953,29.07-9.302,37.209,0c8.14,9.302,30.922-1.302,30.922-1.302"/>
	<path fill="none" stroke="#009EE2" stroke-miterlimit="10" d="M491.516,827.962c0,0,11.628,13.953,31.395,0
		c19.767-13.953,29.07-9.302,37.209,0c8.14,9.302,30.922-1.302,30.922-1.302"/>
</g>
<text transform="matrix(1 0 0 1 77.2916 142.3884)"><tspan x="0" y="0" fill="#39A935" font-family="'BrandonGrotesque-Regular'" font-size="72">AFRO</tspan><tspan x="-22.932" y="72" fill="#009540" font-family="'BrandonGrotesque-Regular'" font-size="72">BEACH</tspan></text>
</svg>
