<?xml version="1.0" encoding="utf-8"?>
<!-- Generator: Adobe Illustrator 17.0.0, SVG Export Plug-In . SVG Version: 6.00 Build 0)  -->
<!DOCTYPE svg PUBLIC "-//W3C//DTD SVG 1.1//EN" "http://www.w3.org/Graphics/SVG/1.1/DTD/svg11.dtd">
<svg version="1.1" id="Layer_1" xmlns="http://www.w3.org/2000/svg" xmlns:xlink="http://www.w3.org/1999/xlink" x="0px" y="0px"
	 width="657.143px" height="908.571px" viewBox="0 0 657.143 908.571" enable-background="new 0 0 657.143 908.571"
	 xml:space="preserve">
<g>
	<rect x="34.143" y="33.055" fill="#E20613" stroke="#1D1D1B" stroke-miterlimit="10" width="595.28" height="841.89"/>
	<g>
		<rect x="49.81" y="49.999" fill="#FFEC00" width="564.262" height="806.392"/>
		<rect x="49.81" y="612.61" fill="#39A935" width="564.262" height="243.781"/>
	</g>
	<g>
		<g>
			<linearGradient id="SVGID_1_" gradientUnits="userSpaceOnUse" x1="328.3626" y1="381.4151" x2="408.8658" y2="381.4151">
				<stop  offset="0" style="stop-color:#FFEE25"/>
				<stop  offset="0.0178" style="stop-color:#FFE920"/>
				<stop  offset="0.102" style="stop-color:#FED60E"/>
				<stop  offset="0.1886" style="stop-color:#FDCB04"/>
				<stop  offset="0.2809" style="stop-color:#FDC700"/>
				<stop  offset="0.6685" style="stop-color:#F08F34"/>
				<stop  offset="0.8876" style="stop-color:#E86031"/>
				<stop  offset="1" style="stop-color:#E2312D"/>
			</linearGradient>
			<path fill="url(#SVGID_1_)" d="M328.363,204.055c26.834,0,53.669,0,80.503,0c-26.789,118.24-53.578,236.48-80.368,354.72"/>
			<path opacity="0.6" fill="#F8B133" d="M329.217,204.055c-26.834,0-53.668,0-80.503,0c26.79,118.24,53.579,236.48,80.368,354.72"
				/>
		</g>
	</g>
	<text transform="matrix(1 0 0 1 183.807 267.4351)" fill="#E20613" font-family="'BrandonGrotesque-Bold'" font-size="111.426">AFRO</text>
	
		<text transform="matrix(1 0 0 1 192.8061 259.9355)" fill="#FFEC00" stroke="#E20613" stroke-miterlimit="10" font-family="'BrandonGrotesque-Bold'" font-size="111.426">AFRO</text>
	<text transform="matrix(1 0 0 1 176.5033 345.1089)" fill="#E20613" font-family="'BrandonGrotesque-Bold'" font-size="93.0836">BEACH</text>
	<g>
		<linearGradient id="SVGID_2_" gradientUnits="userSpaceOnUse" x1="263.8769" y1="610.4257" x2="393.2364" y2="610.4257">
			<stop  offset="0" style="stop-color:#FFEE25"/>
			<stop  offset="0.0178" style="stop-color:#FFE920"/>
			<stop  offset="0.102" style="stop-color:#FED60E"/>
			<stop  offset="0.1886" style="stop-color:#FDCB04"/>
			<stop  offset="0.2809" style="stop-color:#FDC700"/>
			<stop  offset="0.6685" style="stop-color:#F08F34"/>
			<stop  offset="0.8876" style="stop-color:#E86031"/>
			<stop  offset="1" style="stop-color:#E2312D"/>
		</linearGradient>
		<circle opacity="0.4" fill="url(#SVGID_2_)" cx="328.557" cy="610.426" r="64.68"/>
		<circle fill="#39A935" cx="328.649" cy="610.631" r="31.979"/>
	</g>
	<g>
		<g>
			<text transform="matrix(0.9972 0.0749 -0.0749 0.9972 397.3777 730.4846)"><tspan x="0" y="0" fill="#12100B" font-family="'BrandonGrotesque-Regular'" font-size="14"> Traditional Zimbabwean </tspan><tspan x="7.98" y="18" fill="#12100B" font-family="'BrandonGrotesque-Regular'" font-size="14">music modernised via </tspan><tspan x="-17.275" y="36" fill="#12100B" font-family="'BrandonGrotesque-Regular'" font-size="14">Cecilia Ndhlovu&apos;s 5 piece band.</tspan><tspan x="-7.258" y="54" fill="#E20613" font-family="'BrandonGrotesque-Bold'" font-size="14">   Stage 2.00pm – 3.00pm</tspan></text>
		</g>
		<polyline fill="none" stroke="#E20613" stroke-miterlimit="10" points="425.979,710.407 442.326,699.814 449.359,712.486 
			465.353,701.862 474.308,714.705 486.006,703.699 497.26,716.746 509.267,705.767 520.162,718.783 530.809,707.683 
			539.525,720.505 		"/>
		<polyline fill="none" stroke="#E20613" stroke-miterlimit="10" points="429.357,663.113 445.704,652.52 452.737,665.193 
			468.731,654.568 477.687,667.411 489.384,656.405 500.638,669.453 512.645,658.474 523.54,671.489 533.301,670.35 
			542.903,673.211 		"/>
		<g>
			
				<text transform="matrix(0.9961 0.0886 -0.0886 0.9961 423.0167 688.8273)" fill="none" stroke="#FFEC00" stroke-width="2" stroke-miterlimit="10" font-family="'BrandonGrotesque-Bold'" font-size="24">BULAWYO</text>
		</g>
	</g>
	<g>
		<polyline fill="none" stroke="#F29100" stroke-miterlimit="10" points="431.49,478.438 447.783,467.762 454.88,480.399 
			470.82,469.694 479.841,482.492 491.482,471.427 502.802,484.418 514.753,473.378 525.714,486.339 536.305,475.185 
			545.085,487.963 		"/>
		<polyline fill="none" stroke="#F29100" stroke-miterlimit="10" points="434.044,438.103 450.338,427.428 457.435,440.064 
			473.375,429.359 482.395,442.157 494.037,431.092 505.357,444.083 517.308,433.044 528.269,446.004 538.859,434.851 
			547.64,447.629 		"/>
		
			<text transform="matrix(0.9965 0.0836 -0.0836 0.9965 416.3517 458.8117)" fill="none" stroke="#39A935" stroke-width="2" stroke-miterlimit="10" font-family="'BrandonGrotesque-Bold'" font-size="24">KASAI MASAI</text>
	</g>
	<g>
		<text transform="matrix(0.9961 0.0888 -0.0888 0.9961 414.663 496.4147)"><tspan x="0" y="0" fill="#E20613" font-family="'BrandonGrotesque-Regular'" font-size="14">Based in London and led by </tspan><tspan x="-4.746" y="18" fill="#E20613" font-family="'BrandonGrotesque-Regular'" font-size="14">Voodoo King Nickens Nkoso,</tspan><tspan x="-42.587" y="36" fill="#E20613" font-family="'BrandonGrotesque-Regular'" font-size="14">Kasaï Masaï brings us the Traditional Sound </tspan><tspan x="-27.922" y="54" fill="#E20613" font-family="'BrandonGrotesque-Regular'" font-size="14">of the most remote equatorial villages </tspan><tspan x="20.328" y="72" fill="#E20613" font-family="'BrandonGrotesque-Regular'" font-size="14">with an Urban Twist.</tspan><tspan x="5.46" y="90" fill="#1D1D1B" font-family="'BrandonGrotesque-Bold'" font-size="14">Stage 5.00pm – 6.00pm</tspan></text>
	</g>
	<g>
		<g>
			<text transform="matrix(0.998 -0.0631 0.0631 0.998 113.7314 518.6365)"><tspan x="0" y="0" fill="#E20613" font-family="'BrandonGrotesque-Regular'" font-size="14">Tight West African fusion, </tspan><tspan x="-38.562" y="18" fill="#E20613" font-family="'BrandonGrotesque-Regular'" font-size="14">leading figures of the modern translation </tspan><tspan x="31.884" y="36" fill="#E20613" font-family="'BrandonGrotesque-Regular'" font-size="14">of world music.</tspan><tspan x="6.454" y="54" fill="#1D1D1B" font-family="'BrandonGrotesque-Bold'" font-size="14">Stage 3.30pm -4.30pm</tspan></text>
		</g>
		<polyline fill="none" stroke="#F29100" stroke-miterlimit="10" points="116.201,496.14 131.063,483.548 139.656,495.219 
			154.163,482.64 164.684,494.235 174.881,481.826 187.709,493.331 198.216,480.909 210.683,492.428 219.826,480.06 
			230.108,491.665 		"/>
		<polyline fill="none" stroke="#F29100" stroke-miterlimit="10" points="116.671,452.681 131.532,440.089 140.125,451.76 
			154.632,439.181 165.154,450.776 175.351,438.367 188.178,449.872 198.686,437.45 211.153,448.969 220.296,436.601 
			230.577,448.206 		"/>
		<g>
			
				<text transform="matrix(0.9992 -0.0393 0.0393 0.9992 86.091 477.2986)" fill="none" stroke="#39A935" stroke-width="2" stroke-miterlimit="10" font-family="'BrandonGrotesque-Bold'" font-size="24">BAAK LAMP FALL</text>
		</g>
	</g>
	<g>
		<g>
			<g>
				<text transform="matrix(0.9993 -0.0364 0.0364 0.9993 102.2367 745.176)"><tspan x="0" y="0" fill="#12100B" font-family="'BrandonGrotesque-Regular'" font-size="14">playing styles that veer from </tspan><tspan x="-37.596" y="18" fill="#12100B" font-family="'BrandonGrotesque-Regular'" font-size="14">     vintage Highlife &amp; OK Jazz to Afrobeat </tspan><tspan x="-21.567" y="36" fill="#12100B" font-family="'BrandonGrotesque-Regular'" font-size="14">&amp; late 80s/early 90s Kwassa Kwassa.</tspan><tspan x="1.945" y="54" fill="#E20613" font-family="'BrandonGrotesque-Bold'" font-size="14">between bands from 2-6pm</tspan></text>
			</g>
			<polyline fill="none" stroke="#E20613" stroke-miterlimit="10" points="124.665,722.295 139.678,709.884 148.129,721.658 
				162.787,709.256 173.168,720.978 183.514,708.693 196.201,720.352 206.859,708.058 219.185,719.727 228.478,707.471 
				238.617,719.199 			"/>
			<polyline fill="none" stroke="#E20613" stroke-miterlimit="10" points="121.902,650.937 136.915,638.525 145.366,650.299 
				160.024,637.897 170.404,649.619 180.751,637.334 193.438,648.993 204.095,636.7 216.422,648.369 225.714,636.113 
				235.854,647.841 			"/>
			<g>
				
					<text transform="matrix(0.9996 -0.0272 0.0272 0.9996 88.499 699.2392)" fill="none" stroke="#FFEC00" stroke-width="2" stroke-miterlimit="10" font-family="'BrandonGrotesque-Bold'" font-size="24">YE YE FEVER DJs</text>
			</g>
		</g>
		<g>
			<text transform="matrix(0.9996 -0.0272 0.0272 0.9996 164.2721 663.4031)"><tspan x="0" y="0" fill="#FFEC00" font-family="'BrandonGrotesque-Bold'" font-size="10">WITH</tspan><tspan x="-25.27" y="10" fill="#FFEC00" font-family="'BrandonGrotesque-Bold'" font-size="10">SUPPORT FROM</tspan></text>
		</g>
	</g>
	<text transform="matrix(1 0 0 1 259.5713 156.8606)" fill="#E20613" font-family="'BrandonGrotesque-Regular'" font-size="14"> &amp; Gwyneth Wint present:</text>
	<text transform="matrix(1 0 0 1 111.7359 380.0874)"><tspan x="0" y="0" fill="#E20613" font-family="'BrandonGrotesque-Regular'" font-size="14">A </tspan><tspan x="12.39" y="0" fill="#E20613" font-family="'BrandonGrotesque-Bold'" font-size="18">FREE</tspan><tspan x="55.697" y="0" fill="#E20613" font-family="'BrandonGrotesque-Regular'" font-size="14"> afternoon of Afro Beat and African rhythms on the DLWP bandstand</tspan><tspan x="124.517" y="16.8" fill="#E20613" font-family="'BrandonGrotesque-Regular'" font-size="14"> featuring live performances from: </tspan></text>
	<path fill="#FFEC00" d="M294.647,611.156h68.013c0,0-2.708-31.906-34.007-31.906C303.628,579.25,294.647,604.563,294.647,611.156z"
		/>
	
		<image overflow="visible" width="5534" height="2624" xlink:href="../../../../../Downloads/DLWP black.jpg"  transform="matrix(0.0278 0 0 0.0278 261.1293 65.2916)">
	</image>
	<text transform="matrix(1 0 0 1 429.5651 86.0352)" fill="#E20613" font-family="'BrandonGrotesque-Bold'" font-size="20">Saturday 9th August</text>
	<text transform="matrix(1 0 0 1 61.7472 87.8317)" fill="#E20613" font-family="'BrandonGrotesque-Bold'" font-size="20"> De La Warr Bandstand</text>
	<text transform="matrix(1 0 0 1 243.1211 836.9324)" fill="#E20613" font-family="'BrandonGrotesque-Bold'" font-size="14">Full bar service will be available.</text>
	<text transform="matrix(1 0 0 1 523.1271 111.0354)" fill="#E20613" font-family="'BrandonGrotesque-Regular'" font-size="18">2pm-6pm</text>
</g>
</svg>
