<?xml version="1.0" encoding="utf-8"?>
<!-- Generator: Adobe Illustrator 17.0.0, SVG Export Plug-In . SVG Version: 6.00 Build 0)  -->
<!DOCTYPE svg PUBLIC "-//W3C//DTD SVG 1.1//EN" "http://www.w3.org/Graphics/SVG/1.1/DTD/svg11.dtd">
<svg version="1.1" id="Layer_1" xmlns="http://www.w3.org/2000/svg" xmlns:xlink="http://www.w3.org/1999/xlink" x="0px" y="0px"
	 width="657.143px" height="908.571px" viewBox="0 0 657.143 908.571" enable-background="new 0 0 657.143 908.571"
	 xml:space="preserve">
<g>
	<polygon fill="#D9E1EC" stroke="#35A8E0" stroke-miterlimit="10" points="31.3,615.207 626.58,624.301 626.58,871.89 31.3,871.89 	
		"/>
	<polygon fill="#1D1D1B" stroke="#FFFFFF" stroke-miterlimit="10" points="626.58,871.89 31.3,871.89 31.3,624.301 31.3,30 
		626.58,30 626.58,624.301 	"/>
	<g>
		<polyline fill="#F29100" points="328.051,362.838 384.766,362.838 328.146,586.33 		"/>
		<polyline fill="#F29100" points="328.653,362.838 271.938,362.838 328.558,586.33 		"/>
	</g>
	<g>
		<circle fill="#F29100" cx="328.119" cy="688.98" r="64.68"/>
		<circle fill="#1D1D1B" cx="328.211" cy="689.186" r="31.979"/>
	</g>
	<polyline fill="#009EE2" points="252.621,805.296 291.619,777.326 315.617,805.296 345.616,777.326 377.114,805.296 
		397.276,777.326 412.439,805.296 	"/>
	<polyline fill="#009EE2" points="411.621,706.951 450.619,678.98 474.617,706.951 504.616,678.98 536.114,706.951 556.276,678.98 
		571.439,706.951 	"/>
	<polyline fill="#009EE2" points="74.621,703.171 113.619,675.201 137.617,703.171 167.616,675.201 199.114,703.171 
		219.276,675.201 234.439,703.171 	"/>
	<text transform="matrix(1 0 0 1 182.4204 195.9897)" fill="#FFEC00" font-family="'BrandonGrotesque-Bold'" font-size="111.426">AFRO</text>
	<text transform="matrix(1 0 0 1 187.1314 315.9731)" fill="#39A935" font-family="'BrandonGrotesque-Bold'" font-size="84.0369">BEACH</text>
	<path fill="#009EE2" stroke="#F29100" stroke-width="7" stroke-miterlimit="10" d="M455.103,299.84"/>
	<path fill="#009EE2" stroke="#F29100" stroke-width="7" stroke-miterlimit="10" d="M200.116,299.84"/>
	
		<line fill="#009EE2" stroke="#F29100" stroke-width="7" stroke-miterlimit="10" x1="169.18" y1="228.468" x2="492.637" y2="228.468"/>
</g>
</svg>
