<?xml version="1.0" encoding="utf-8"?>
<!-- Generator: Adobe Illustrator 17.0.0, SVG Export Plug-In . SVG Version: 6.00 Build 0)  -->
<!DOCTYPE svg PUBLIC "-//W3C//DTD SVG 1.1//EN" "http://www.w3.org/Graphics/SVG/1.1/DTD/svg11.dtd">
<svg version="1.1" id="Layer_1" xmlns="http://www.w3.org/2000/svg" xmlns:xlink="http://www.w3.org/1999/xlink" x="0px" y="0px"
	 width="657.143px" height="908.571px" viewBox="0 0 657.143 908.571" enable-background="new 0 0 657.143 908.571"
	 xml:space="preserve">
<g>
	<rect x="31.054" y="30" fill="#F29100" stroke="#FFEC00" stroke-miterlimit="10" width="595.28" height="841.89"/>
	<polygon fill="#1D1D1B" points="610.668,855.223 46.721,855.223 46.721,617.182 46.721,45.797 610.668,45.797 610.668,617.182 	"/>
	<g>
		<g>
			<circle fill="none" stroke="#F29100" stroke-miterlimit="10" cx="328.657" cy="713.577" r="38.308"/>
			<circle fill="none" stroke="#F8B133" stroke-miterlimit="10" cx="328.712" cy="713.699" r="18.94"/>
		</g>
		<g>
			<circle fill="none" stroke="#F29100" stroke-miterlimit="10" cx="337.606" cy="708.967" r="38.308"/>
			<circle fill="none" stroke="#1D1D1B" stroke-miterlimit="10" cx="337.66" cy="709.089" r="18.94"/>
		</g>
	</g>
	<polyline fill="#FFEC00" points="407.288,729.963 444.934,702.962 468.1,729.963 497.058,702.962 527.464,729.963 546.927,702.962 
		561.564,729.963 	"/>
	<polyline fill="#FFEC00" points="91.63,726.314 129.275,699.314 152.442,726.314 181.4,699.314 211.806,726.314 231.268,699.314 
		245.905,726.314 	"/>
	<text transform="matrix(1 0 0 1 183.1423 183.8047)" fill="#F29100" font-family="'BrandonGrotesque-Bold'" font-size="107.5613">AFRO</text>
	<text transform="matrix(1 0 0 1 179.0889 292.4878)" fill="#39A935" font-family="'BrandonGrotesque-Bold'" font-size="89.935">BEACH</text>
	<path fill="#009EE2" stroke="#F29100" stroke-width="7" stroke-miterlimit="10" d="M449.263,279.053"/>
	<path fill="#009EE2" stroke="#F29100" stroke-width="7" stroke-miterlimit="10" d="M203.119,279.053"/>
	<polyline fill="none" stroke="#F29100" stroke-miterlimit="10" points="205.05,214.262 238.183,202.679 255.734,214.262 
		288.1,202.679 309.819,214.262 332.871,202.679 359.572,214.262 383.296,202.679 409.219,214.262 429.994,202.679 451.193,214.262 
			"/>
	<polyline fill="none" stroke="#F29100" stroke-miterlimit="10" points="108.353,443.454 123.166,431.871 131.012,443.454 
		145.482,431.871 155.191,443.454 165.497,431.871 177.434,443.454 188.04,431.871 199.629,443.454 208.917,431.871 
		218.394,443.454 	"/>
	<polyline fill="none" stroke="#F29100" stroke-miterlimit="10" points="107.557,404.449 122.37,392.865 130.216,404.449 
		144.686,392.865 154.395,404.449 164.701,392.865 176.638,404.449 187.244,392.865 198.833,404.449 208.121,392.865 
		217.598,404.449 	"/>
	<g>
		<g>
			<polyline fill="#F29100" points="332.194,366.3 261.832,366.3 332.076,643.569 			"/>
		</g>
		<polygon fill="#FFEC00" points="329.737,428.464 366.099,397.101 401.809,366.3 261.832,366.3 		"/>
	</g>
	<path fill="#FFEC00" d="M325.287,388.235"/>
	<text transform="matrix(1 0 0 1 203.8354 83.3999)" fill="#39A935" font-family="'BrandonGrotesque-Regular'" font-size="13.5144">De La Warr Pavillion &amp; Gwyneth Wint present:</text>
	<text transform="matrix(1 0 0 1 145.0183 323.7744)"><tspan x="0" y="0" fill="#F8B133" font-family="'BrandonGrotesque-Regular'" font-size="12">A FREE afternoon of Afro Beat and African rhythms on the DLWP bandstand</tspan><tspan x="103.984" y="14.4" fill="#F8B133" font-family="'BrandonGrotesque-Regular'" font-size="12"> featuring live performances from:</tspan></text>
	<text transform="matrix(0.9999 -0.0137 0.0137 0.9999 383.8542 623.3715)"><tspan x="0" y="0" fill="#FFEC00" font-family="'BrandonGrotesque-Regular'" font-size="11.5838"> Traditional Zimbabwean music modernised via </tspan><tspan x="36.135" y="13.9" fill="#FFEC00" font-family="'BrandonGrotesque-Regular'" font-size="11.5838">Cecilia Ndhlovu&apos;s 5 piece band</tspan></text>
	<g>
		<polyline fill="none" stroke="#F29100" stroke-miterlimit="10" points="430.202,595.263 445.014,583.68 452.86,595.263 
			467.33,583.68 477.04,595.263 487.346,583.68 499.282,595.263 509.888,583.68 521.477,595.263 530.765,583.68 540.242,595.263 		
			"/>
		<polyline fill="none" stroke="#F29100" stroke-miterlimit="10" points="429.406,556.258 444.218,544.675 452.064,556.258 
			466.534,544.675 476.244,556.258 486.55,544.675 498.486,556.258 509.092,544.675 520.681,556.258 529.969,544.675 
			539.446,556.258 		"/>
		<text transform="matrix(1 0 0 1 442.3503 575.709)" fill="#39A935" font-family="'BrandonGrotesque-Bold'" font-size="17.3757">BULAWYO</text>
	</g>
	<g>
		<polyline fill="none" stroke="#F29100" stroke-miterlimit="10" points="429.804,442.489 444.616,430.906 452.462,442.489 
			466.932,430.906 476.642,442.489 486.948,430.906 498.884,442.489 509.49,430.906 521.079,442.489 530.367,430.906 
			539.844,442.489 		"/>
		<polyline fill="none" stroke="#F29100" stroke-miterlimit="10" points="429.008,403.483 443.82,391.9 451.666,403.483 
			466.136,391.9 475.846,403.483 486.152,391.9 498.088,403.483 508.694,391.9 520.283,403.483 529.571,391.9 539.048,403.483 		"/>
		<text transform="matrix(1 0 0 1 431.3347 421.9697)" fill="#39A935" font-family="'BrandonGrotesque-Bold'" font-size="17.3757">KASAI MASAI</text>
	</g>
	<text transform="matrix(1 -0.0074 0.0074 1 86.6664 622.5381)"><tspan x="0" y="0" fill="#FFEC00" font-family="'BrandonGrotesque-Light'" font-size="10.6185"> through the day, playing styles that veer from </tspan><tspan x="7.916" y="12.742" fill="#FFEC00" font-family="'BrandonGrotesque-Light'" font-size="10.6185">     vintage Highlife &amp; OK Jazz to Afrobeat </tspan><tspan x="20.36" y="25.484" fill="#FFEC00" font-family="'BrandonGrotesque-Light'" font-size="10.6185">&amp; late 80s/early 90s Kwassa Kwassa</tspan></text>
	<text transform="matrix(1 0 0 1 300.0535 787.9434)"><tspan x="0" y="0" fill="#39A935" font-family="'BrandonGrotesque-Regular'" font-size="13.5144">2pm – 6pm</tspan><tspan x="-30.67" y="16.218" fill="#39A935" font-family="'BrandonGrotesque-Regular'" font-size="13.5144"> De La Warr Bandstand</tspan><tspan x="-51.185" y="32.435" fill="#39A935" font-family="'BrandonGrotesque-Regular'" font-size="13.5144">Full bar service will be available.</tspan></text>
	<g>
		<text transform="matrix(1 -0.0056 0.0056 1 421.1067 460.1283)"><tspan x="0" y="0" fill="#FFEC00" font-family="'BrandonGrotesque-Regular'" font-size="11.5837">Based in London and led by </tspan><tspan x="-3.927" y="13.9" fill="#FFEC00" font-family="'BrandonGrotesque-Regular'" font-size="11.5837">Voodoo King Nickens Nkoso,</tspan><tspan x="-35.237" y="27.801" fill="#FFEC00" font-family="'BrandonGrotesque-Regular'" font-size="11.5837">Kasaï Masaï brings us the Traditional Sound </tspan><tspan x="-23.104" y="41.701" fill="#FFEC00" font-family="'BrandonGrotesque-Regular'" font-size="11.5837">of the most remote equatorial villages </tspan><tspan x="20.995" y="55.603" fill="#FFEC00" font-family="'BrandonGrotesque-Regular'" font-size="11.5837">with a Urban Twist</tspan></text>
	</g>
	<g>
		<text transform="matrix(0.9997 -0.0258 0.0258 0.9997 100.9127 468.6378)"><tspan x="0" y="0" fill="#FFEC00" font-family="'BrandonGrotesque-Regular'" font-size="11.5838">  Tight West African fusion, </tspan><tspan x="14.485" y="13.9" fill="#FFEC00" font-family="'BrandonGrotesque-Regular'" font-size="11.5838">leading figures of the </tspan><tspan x="18.968" y="27.801" fill="#FFEC00" font-family="'BrandonGrotesque-Regular'" font-size="11.5838">modern translation </tspan><tspan x="28.953" y="41.702" fill="#FFEC00" font-family="'BrandonGrotesque-Regular'" font-size="11.5838">of world music.</tspan></text>
	</g>
	<g>
		<text transform="matrix(1 0 0 1 93.2905 424.1294)" fill="#39A935" font-family="'BrandonGrotesque-Bold'" font-size="17.3757">BAAK LAMP FALL</text>
	</g>
	<polyline fill="none" stroke="#F29100" stroke-miterlimit="10" points="128.751,604.917 143.564,593.333 151.41,604.917 
		165.88,593.333 175.589,604.917 185.895,593.333 197.832,604.917 208.438,593.333 220.027,604.917 229.315,593.333 
		238.792,604.917 	"/>
	<polyline fill="none" stroke="#F29100" stroke-miterlimit="10" points="127.955,551.438 142.768,539.855 150.614,551.438 
		165.084,539.855 174.793,551.438 185.099,539.855 197.036,551.438 207.642,539.855 219.231,551.438 228.519,539.855 
		237.996,551.438 	"/>
	<g>
		<text transform="matrix(1 0 0 1 116.4338 585.5918)" fill="#39A935" font-family="'BrandonGrotesque-Bold'" font-size="17.3757">YE YE FEVER DJs</text>
	</g>
	<g>
		<text transform="matrix(1 0 0 1 133.8752 565.6416)" fill="#39A935" font-family="'BrandonGrotesque-Light'" font-size="9.6532">WITH SUPPORT FROM</text>
	</g>
	
		<image overflow="visible" width="5534" height="2624" xlink:href="../../../../../Downloads/DLWP black.jpg"  transform="matrix(0.011 0 0 0.011 433.7244 791.9434)">
	</image>
	<g>
		<polyline fill="none" stroke="#F29100" stroke-miterlimit="10" points="519.935,90.08 535.02,74.995 549.634,89.609 
			568.019,71.224 		"/>
		<polyline fill="none" stroke="#F29100" stroke-miterlimit="10" points="527.242,97.387 542.327,82.302 556.941,96.915 
			575.325,78.531 		"/>
		<polyline fill="none" stroke="#F29100" stroke-miterlimit="10" points="538.556,108.7 553.641,93.615 568.254,108.229 
			586.639,89.844 		"/>
	</g>
	<g>
		<polyline fill="none" stroke="#F29100" stroke-miterlimit="10" points="522.932,802.569 538.017,787.484 552.63,802.098 
			571.015,783.713 		"/>
		<polyline fill="none" stroke="#F29100" stroke-miterlimit="10" points="530.239,809.876 545.324,794.791 559.937,809.405 
			578.322,791.02 		"/>
		<polyline fill="none" stroke="#F29100" stroke-miterlimit="10" points="541.552,821.19 556.637,806.105 571.251,820.718 
			589.636,802.334 		"/>
	</g>
	<g>
		<polyline fill="none" stroke="#F29100" stroke-miterlimit="10" points="74.205,83.518 89.29,68.433 103.904,83.046 
			122.289,64.662 		"/>
		<polyline fill="none" stroke="#F29100" stroke-miterlimit="10" points="81.512,90.825 96.597,75.74 111.211,90.353 
			129.595,71.968 		"/>
		<polyline fill="none" stroke="#F29100" stroke-miterlimit="10" points="92.826,102.138 107.911,87.053 122.524,101.667 
			140.909,83.282 		"/>
	</g>
	<g>
		<polyline fill="none" stroke="#F29100" stroke-miterlimit="10" points="75.002,801.452 90.086,786.367 104.7,800.98 
			123.085,782.595 		"/>
		<polyline fill="none" stroke="#F29100" stroke-miterlimit="10" points="82.308,808.758 97.393,793.673 112.007,808.287 
			130.392,789.902 		"/>
		<polyline fill="none" stroke="#F29100" stroke-miterlimit="10" points="93.622,820.072 108.707,804.987 123.32,819.601 
			141.705,801.216 		"/>
	</g>
</g>
</svg>
