<?xml version="1.0" encoding="utf-8"?>
<!-- Generator: Adobe Illustrator 17.0.0, SVG Export Plug-In . SVG Version: 6.00 Build 0)  -->
<!DOCTYPE svg PUBLIC "-//W3C//DTD SVG 1.1//EN" "http://www.w3.org/Graphics/SVG/1.1/DTD/svg11.dtd">
<svg version="1.1" id="Layer_1" xmlns="http://www.w3.org/2000/svg" xmlns:xlink="http://www.w3.org/1999/xlink" x="0px" y="0px"
	 width="142px" height="117.802px" viewBox="0 0 142 117.802" enable-background="new 0 0 142 117.802" xml:space="preserve">
<g id="VvbxBQ.tif">
	<g>
		<g>
			<path fill="#D7B552" d="M102.098,94.623c-9.109,0-18.219,0-27.328,0c-0.137-0.325-0.275-0.65-0.412-0.975
				c-0.22,0.325-0.44,0.65-0.659,0.975c-0.357,0-0.714,0-1.072,0c0.01-0.397,0.02-0.794,0.03-1.191
				c0.497-0.138,0.994-0.397,1.492-0.397c10.25,0.002,20.499,0.033,30.749,0.058c-0.214,0.194-0.428,0.389-0.642,0.583
				c-0.181-0.008-0.362-0.015-0.544-0.023C103.174,93.976,102.636,94.3,102.098,94.623z"/>
			<path fill="#D7B552" d="M68.339,94.623c-7.323,0-14.647,0-21.97,0c-0.367-0.35-0.726-0.99-1.103-1.001
				c-1.815-0.049-3.635,0.072-5.451,0.135c-0.218,0.016-0.439,0.03-0.659,0.043l-0.016-0.028c-0.417-0.263-0.834-0.525-1.251-0.788
				c9.193,0.01,18.386,0.009,27.578,0.049c0.946,0.004,1.891,0.253,2.837,0.389C68.316,93.823,68.328,94.223,68.339,94.623z"/>
			<path fill="#F3EDE6" d="M104.255,93.676c0.214-0.194,0.428-0.389,0.642-0.583c0.018-0.394,0.035-0.788,0.052-1.182
				c0.075-0.163,0.074-0.326-0.003-0.489c0.129-0.395,0.258-0.791,0.387-1.186c0.463-0.141,0.927-0.281,1.058-0.321
				c0.176,1.563,0.353,3.136,0.529,4.708c-0.536,0-1.072,0-1.608,0C104.96,94.307,104.608,93.991,104.255,93.676z"/>
			<path fill="#D9A422" d="M29.209,34.607c1.613-0.157,3.226-0.314,4.84-0.471c1.177,0,2.353,0,3.834,0c0-1.81,0-3.36,0-4.909
				c0.324-0.44,0.649-0.881,0.973-1.321c3.939,0,7.878-0.001,11.816-0.001c1.776,1.328,3.551,1.328,5.327,0c1.082,0,2.164,0,3.247,0
				c1.776,1.328,3.551,1.328,5.327,0c1.082,0,2.164,0,3.247-0.001c1.962,0.106,3.924,0.212,5.886,0.319
				c0.031-0.135,0.05-0.272,0.057-0.411c6.919,0,13.839,0.001,20.758,0.001c-0.007,0.145-0.011,0.289-0.012,0.434
				c-0.105,0.32-0.21,0.641-0.315,0.962c0.124,0.02,0.249,0.039,0.373,0.059c0-0.331,0-0.661,0-0.992
				c0.706-0.021,1.412-0.042,2.117-0.063c0,1.924,0,3.849,0,5.906c5.617,0,10.884,0,16.151,0c0.126,0.035,0.252,0.036,0.379,0.002
				c0.161,0.49,0.322,0.98,0.483,1.471c0,0.372,0,0.743-0.001,1.115c-0.113,3.58-0.226,7.161-0.339,10.741
				c-5.523,0.015-11.047,0.031-16.57,0.046c-0.316-2.319,0.71-4.984-1.742-6.752c0.21-0.614,0.42-1.229,0.416-1.216
				c-2.401-0.43-4.653-0.832-6.905-1.235c-0.311-1.425-0.621-2.85-0.932-4.274c-1.281-1.611-4.745-1.61-6.418,0.003
				c-2.378,0.801-0.822,2.779-1.246,4.165c-0.02,0.308-0.041,0.616-0.061,0.923c0.211,0.52,0.421,1.04,0.632,1.56
				c0.229,0.036,0.457,0.071,0.686,0.107c2.32,0.032,4.639,0.063,6.959,0.096c0.046,0.605,0.091,1.208,0.137,1.812
				c0.005,1.403,0.011,2.806,0.016,4.209c-0.049,0.195-0.098,0.391-0.147,0.586c-13.217,0.008-26.433,0.025-39.65,0.002
				c-0.856-0.002-1.711-0.319-2.566-0.489c-0.093-1.919-0.185-3.839-0.278-5.752c-2.691,0-5.144,0-7.958,0c0,2.197,0,4.223,0,6.249
				c-2.773-0.014-5.545-0.027-8.318-0.041C29.344,43.166,29.277,38.887,29.209,34.607z M55.486,34.011
				c-3.632,2.008,0.107,4.637-0.942,6.625c3.033,0.206,5.671,0.386,8.542,0.581c0-2.381,0-4.502,0-6.623
				c1.675-0.847,1.03-1.453-0.288-1.545c-2.088-0.147-4.196-0.074-6.291,0.022C56.153,33.087,55.826,33.683,55.486,34.011z
				 M110.81,36.989c0.005-0.175,0.01-0.351,0.015-0.526c-3.988,0-7.976,0-11.964,0c-0.004,0.175-0.009,0.351-0.013,0.526
				C102.836,36.989,106.823,36.989,110.81,36.989z"/>
			<path fill="#D9A421" d="M105.333,90.235c-0.129,0.395-0.258,0.791-0.388,1.186c-0.772-0.004-1.543-0.008-2.314-0.013l0.001-0.002
				c-0.96-0.356-1.92-1.021-2.881-1.024c-20.625-0.061-41.25-0.049-61.875-0.05c-0.062-1.023-0.125-2.046-0.197-3.239
				c-2.733,0-5.327,0-7.921,0c-0.165-0.17-0.331-0.341-0.496-0.511c0.068-1.975,0.136-3.951,0.203-5.926
				c27.096-0.01,54.192-0.024,81.288-0.008c0.856,0.001,1.712,0.316,2.568,0.484c0.246,6.969,0.853,5.506-5.471,5.778
				c-0.922,0.04-1.825,0.52-2.737,0.797c0.004,0.345,0.007,0.689,0.011,1.034C105.196,89.239,105.265,89.737,105.333,90.235z"/>
			<path fill="#58AF39" d="M25.2,67.5c-0.882-0.019-1.764-0.038-2.643-0.056c0.003,0.002-0.06-0.012-0.06-0.012
				c-0.428-0.645-1.2-1.281-1.216-1.936c-0.04-1.634,0.263-3.276,0.429-4.915c0.378-0.035,0.757-0.071,1.135-0.106
				c0.88,0.009,1.761,0.019,2.641,0.028c1.253,0.02,2.507,0.04,3.759,0.061c5.586,0.001,11.173,0.001,17.092,0.001
				c0,2.556,0,4.589,0,6.622c-2.798,0-5.596,0-8.677,0c0,2.662,0,4.748,0,7.114c-2.947,0-5.602,0-8.257,0c0-2.268,0-4.536,0-7.203
				C27.725,67.258,26.462,67.379,25.2,67.5z"/>
			<path fill="#58AF39" d="M114.416,60.433c0.186,0.02,0.371,0.04,0.557,0.06c0,0,0.219,0.096,0.219,0.096l0.228-0.073
				c1.445,0.013,2.89,0.027,4.335,0.04c0.567,0.025,1.134,0.051,1.701,0.076l0.036,0.133c0,0,0.135,0.026,0.135,0.026
				c0.045,0.751,0.091,1.503,0.136,2.254c0.035,0.875,0.07,1.75,0.104,2.625c-0.694,0.535-1.388,1.07-2.082,1.605
				c-1.787,0.008-3.575,0.016-5.362,0.024c-0.322,0.007-0.643,0.014-0.965,0.022c-0.392,0.005-0.783,0.01-1.175,0.014
				c-3.984-0.019-7.97,0.01-11.952-0.085c-1.375-0.033-2.744-0.372-4.115-0.571c0.142-1.405,0.284-2.81,0.427-4.215
				c-0.074-0.616-0.149-1.231-0.221-1.831c0.778,0,1.37,0,1.962,0c1.399-0.003,2.798-0.007,4.197-0.01
				c0.534-0.016,1.068-0.032,1.602-0.047c0.313-0.413,0.867-0.81,0.895-1.241c0.107-1.636,0.043-3.282,0.043-4.803
				c2.452-0.192,4.186-0.327,5.921-0.463c0.774-0.003,1.548-0.006,2.321-0.01c0.122,0.446,0.244,0.893,0.365,1.339
				c0.02,1.466,0.041,2.933,0.061,4.4C114,60.011,114.208,60.222,114.416,60.433z"/>
			<path fill="#DFDBD6" d="M96.723,27.669c0.542-0.014,1.084-0.029,1.626-0.043c2.114,0.059,4.713-0.594,6.184,0.409
				c1.115,0.76,0.792,3.629,1.195,6.083c2.239,0,4.674,0,7.108,0c-5.268,0-10.535,0-16.152,0c0-2.058,0-3.982,0-5.906
				C96.697,28.03,96.71,27.85,96.723,27.669z"/>
			<path fill="#FBFAED" d="M94.062,26.034c-1.014,0.179-2.027,0.511-3.042,0.513c-17.563,0.033-35.127,0.025-52.69,0.025
				c1.013-0.179,2.026-0.514,3.04-0.515C58.934,26.025,76.498,26.034,94.062,26.034z"/>
			<path fill="#F3EDE6" d="M113.731,55.401c-0.122-0.446-0.244-0.893-0.365-1.34c-0.002-2.205-0.005-4.41-0.007-6.615
				c0.113-3.58,0.226-7.161,0.339-10.741c0.439,0.05,0.877,0.1,0.674,0.077c0.223,3.879,0.643,7.57,0.575,11.251
				C114.9,50.495,114.16,52.945,113.731,55.401z"/>
			<path fill="#F3EDE6" d="M105.116,87.707c0.912-0.277,1.815-0.757,2.737-0.797c6.324-0.272,5.717,1.191,5.471-5.777
				c0.003-0.329,0.006-0.658,0.009-0.988c0.099-0.356,0.197-0.712,0.296-1.068c0.509,0.052,1.019,0.104,1.135,0.115
				c-0.123,2.142-0.247,4.111-0.346,6.081c-0.115,2.305-1.418,2.804-3.575,2.247c-1.665-0.429-3.59,0.152-5.399,0.283
				C105.341,87.75,105.231,87.718,105.116,87.707z"/>
			<path fill="#7B3C15" d="M113.627,79.077c-0.099,0.356-0.197,0.712-0.296,1.068c-0.208-0.508-0.574-1.009-0.6-1.526
				c-0.188-3.759-0.307-7.521-0.447-11.282c0.392-0.005,0.783-0.01,1.175-0.014c0.085,0.356,0.169,0.712,0.254,1.069
				C113.685,71.953,113.656,75.515,113.627,79.077z"/>
			<path fill="#F3EDE6" d="M121.764,63.046c-0.045-0.751-0.091-1.503-0.136-2.254c0.632,0.478,1.265,0.957,2.329,1.762
				C122.832,62.806,122.298,62.926,121.764,63.046z"/>
			<path fill="#F3EDE6" d="M119.787,67.277c0.694-0.535,1.388-1.07,2.082-1.605c-0.114,0.818-0.228,1.635-0.342,2.453
				C120.946,67.841,120.367,67.559,119.787,67.277z"/>
			<path fill="#F3EDE6" d="M121.457,60.633c-0.567-0.025-1.134-0.05-1.701-0.076C120.323,60.582,120.89,60.608,121.457,60.633z"/>
			<path fill="#F3EDE6" d="M113.713,68.391c-0.085-0.356-0.169-0.712-0.254-1.069c0.322-0.007,0.643-0.014,0.965-0.022
				C114.187,67.665,113.95,68.028,113.713,68.391z"/>
			<path fill="#D7B552" d="M105.116,87.707c0.116,0.011,0.225,0.043,0.327,0.096c-0.106,0.313-0.211,0.625-0.316,0.938
				C105.123,88.396,105.119,88.052,105.116,87.707z"/>
			<path fill="#F3EDE6" d="M113.698,35.59c-0.161-0.49-0.322-0.98-0.483-1.471C113.375,34.61,113.536,35.1,113.698,35.59z"/>
			<path fill="#F3EDE6" d="M114.416,60.433c-0.208-0.211-0.416-0.422-0.624-0.633C114,60.011,114.208,60.222,114.416,60.433z"/>
			<path fill="#F3EDE6" d="M115.42,60.517l-0.228,0.073c0,0-0.219-0.097-0.219-0.096c0.083-0.122,0.165-0.244,0.248-0.366
				C115.287,60.257,115.354,60.387,115.42,60.517z"/>
			<path fill="#DE9D19" d="M72.656,93.432c-1.451-0.003-2.901-0.006-4.352-0.009c-0.946-0.136-1.891-0.385-2.837-0.389
				c-9.193-0.04-18.385-0.039-27.578-0.049c-0.078-0.166-0.08-0.332-0.005-0.499c20.687-0.002,41.374,0.009,62.061-0.031
				c1.668-0.003,3.336-0.355,5.004-0.545c-0.018,0.394-0.036,0.788-0.053,1.183c-10.249-0.025-20.499-0.056-30.749-0.058
				C73.651,93.035,73.154,93.294,72.656,93.432z"/>
			<path fill="#DC9F2D" d="M37.877,90.332c20.625,0.002,41.25-0.011,61.875,0.05c0.961,0.003,1.921,0.667,2.881,1.024
				c-21.587,0.002-43.174,0.003-64.761,0.005C37.874,91.051,37.876,90.692,37.877,90.332z"/>
			<path fill="#CFA715" d="M37.872,91.411c21.587-0.002,43.174-0.003,64.761-0.005c0,0-0.001,0.002-0.001,0.002
				c-0.923,0.178-1.846,0.511-2.77,0.512c-20.66,0.027-41.32,0.018-61.979,0.016C37.879,91.761,37.876,91.586,37.872,91.411z"/>
			<path fill="#DBA426" d="M37.883,91.936c20.66,0.002,41.32,0.012,61.979-0.016c0.924-0.001,1.847-0.334,2.77-0.512
				c0.771,0.004,1.542,0.008,2.314,0.013c0.078,0.163,0.078,0.326,0.003,0.489c-1.667,0.189-3.335,0.541-5.003,0.544
				c-20.687,0.04-41.374,0.029-62.061,0.031C37.884,92.303,37.884,92.12,37.883,91.936z"/>
			<path fill="#E74B1D" d="M113.358,47.446c0.002,2.205,0.005,4.409,0.007,6.615c-0.774,0.004-1.548,0.007-2.32,0.009
				c-2.262,0.011-4.526,0.023-6.79,0.035c-1.422-0.046-2.844-0.13-4.266-0.131c-23.52-0.01-47.039-0.009-70.559-0.011
				c-0.007-2.172-0.013-4.345-0.02-6.518c2.773,0.013,5.545,0.027,8.318,0.04c2.745-0.166,5.491-0.332,8.236-0.497
				c0.855,0.17,1.711,0.487,2.566,0.489c13.217,0.024,26.433,0.006,39.65-0.002c0,0,0.265,0.03,0.265,0.03l0.263-0.048
				c2.693,0.011,5.386,0.023,8.079,0.034C102.311,47.477,107.834,47.462,113.358,47.446z"/>
			<path fill="#DDD9D4" d="M63.086,34.595c0,2.121,0,4.242,0,6.623c-2.871-0.195-5.509-0.375-8.542-0.581
				c1.049-1.989-2.69-4.617,0.942-6.625C58.019,34.206,60.553,34.4,63.086,34.595z"/>
			<path fill="#DDD8D0" d="M87.624,34.015c0.311,1.425,0.621,2.85,0.933,4.275c-0.076,0.68-0.152,1.359-0.228,2.039
				c-0.051,0.18-0.103,0.36-0.154,0.54c-2.32-0.032-4.639-0.063-6.958-0.094c-0.228-0.035-0.457-0.072-0.686-0.108
				c-0.211-0.52-0.421-1.04-0.631-1.561c0.021-0.308,0.04-0.615,0.06-0.923c0.424-1.386-1.132-3.364,1.246-4.165
				C83.345,34.017,85.485,34.016,87.624,34.015z"/>
			<path fill="#DDDBDA" d="M45.965,46.989c-2.745,0.166-5.49,0.332-8.236,0.497c0-2.026,0-4.052,0-6.249c2.814,0,5.268,0,7.958,0
				C45.779,43.15,45.872,45.07,45.965,46.989z"/>
			<path fill="#DBDDDA" d="M96.788,47.492c-2.693-0.011-5.386-0.023-8.079-0.034c-0.127-0.189-0.254-0.379-0.38-0.568
				c-0.005-1.403-0.011-2.806-0.016-4.209c1.116-0.367,2.234-0.728,3.347-1.102c0.831-0.279,1.657-0.574,2.486-0.863
				c0.3,0.008,0.6,0.016,0.901,0.024C97.498,42.508,96.472,45.174,96.788,47.492z"/>
			<path fill="#D1A414" d="M110.81,36.989c-3.987,0-7.975,0-11.962,0c0.004-0.175,0.009-0.351,0.013-0.526c3.988,0,7.976,0,11.964,0
				C110.821,36.638,110.816,36.813,110.81,36.989z"/>
			<path fill="#D1A414" d="M95.045,40.741c-0.3-0.008-0.6-0.016-0.901-0.025c-1.939-0.13-3.877-0.259-5.816-0.388
				c0.076-0.679,0.152-1.359,0.228-2.039c2.252,0.403,4.504,0.806,6.905,1.235C95.466,39.512,95.256,40.126,95.045,40.741z"/>
			<path fill="#D1A414" d="M63.086,34.595c-2.533-0.194-5.067-0.389-7.6-0.583c0.34-0.328,0.667-0.924,1.021-0.941
				c2.094-0.095,4.203-0.169,6.291-0.022C64.116,33.142,64.761,33.748,63.086,34.595z"/>
			<path fill="#D1A414" d="M87.624,34.015c-2.139,0.001-4.279,0.002-6.418,0.003C82.879,32.405,86.343,32.403,87.624,34.015z"/>
			<path fill="#DBC297" d="M88.329,40.328c1.939,0.129,3.877,0.258,5.816,0.388c-0.828,0.289-1.654,0.584-2.486,0.863
				c-1.114,0.374-2.231,0.735-3.347,1.102c-0.046-0.604-0.091-1.207-0.137-1.812C88.226,40.688,88.278,40.508,88.329,40.328z"/>
			<path fill="#D1A414" d="M59.246,27.905c1.776,0,3.551,0,5.327,0C62.797,29.233,61.021,29.233,59.246,27.905z"/>
			<path fill="#D1A414" d="M50.672,27.905c1.776,0,3.551,0,5.327,0C54.223,29.233,52.448,29.233,50.672,27.905z"/>
			<path fill="#D1A414" d="M67.819,27.904c1.414-0.037,2.828-0.073,4.243-0.11c0.548,0.143,1.095,0.286,1.643,0.429
				C71.743,28.117,69.781,28.01,67.819,27.904z"/>
			<path fill="#D1A414" d="M37.884,27.725c0.16-0.013,0.309-0.058,0.449-0.136c0.174,0.106,0.348,0.211,0.523,0.317
				c-0.324,0.44-0.649,0.881-0.973,1.321C37.883,28.726,37.884,28.226,37.884,27.725z"/>
			<path fill="#DBBD66" d="M96.723,27.669c-0.013,0.181-0.026,0.362-0.039,0.543c-0.706,0.021-1.412,0.042-2.117,0.063l-0.059-0.028
				c0.001-0.145,0.005-0.29,0.012-0.434C95.254,27.765,95.988,27.717,96.723,27.669z"/>
			<path fill="#D1A414" d="M94.566,28.275c0,0.331,0,0.661,0,0.992c-0.124-0.02-0.249-0.039-0.373-0.059
				c0.105-0.321,0.21-0.642,0.315-0.962C94.507,28.247,94.566,28.275,94.566,28.275z"/>
			<path fill="#DBBD66" d="M73.705,28.223c-0.548-0.143-1.095-0.286-1.643-0.429c0.567,0.006,1.133,0.011,1.7,0.017
				C73.755,27.95,73.736,28.087,73.705,28.223z"/>
			<path fill="#DBC297" d="M79.96,38.183c-0.02,0.307-0.039,0.614-0.06,0.923C79.919,38.798,79.939,38.491,79.96,38.183z"/>
			<path fill="#DBC297" d="M80.531,40.667c0.229,0.036,0.458,0.073,0.686,0.108C80.988,40.738,80.759,40.702,80.531,40.667z"/>
			<path fill="#DBC297" d="M88.328,46.89c0.127,0.189,0.254,0.379,0.38,0.568c0,0-0.263,0.048-0.263,0.048s-0.265-0.03-0.265-0.03
				C88.23,47.281,88.279,47.086,88.328,46.89z"/>
			<path fill="#8C4715" d="M112.285,67.337c0.141,3.761,0.26,7.523,0.447,11.282c0.026,0.518,0.391,1.018,0.6,1.526
				c-0.003,0.329-0.006,0.659-0.009,0.988c-0.856-0.169-1.712-0.485-2.568-0.485c-27.096-0.016-54.192-0.002-81.288,0.008
				c-0.021-2.119-0.043-4.237-0.064-6.356c2.655,0,5.31,0,8.257,0c0-2.365,0-4.451,0-7.114c3.081,0,5.879,0,8.678,0
				c0.2,0.055,0.4,0.109,0.6,0.163c4.628-0.005,9.256-0.011,13.883-0.016c0.194,0.003,0.389,0.005,0.583,0.008
				c0.346,0.929,0.747,1.842,1.023,2.791c0.303,1.04,0.491,2.113,0.729,3.171c1.726,0.227,3.452,0.454,5.178,0.682
				c1.255,0.01,2.509,0.02,3.764,0.031c1.602-0.002,3.203-0.004,4.805-0.006c1.073-0.094,2.146-0.188,3.22-0.283
				c0.181-1.002,0.565-2.018,0.5-3.004c-0.142-2.183,0.675-3.03,2.895-2.925c3.347,0.158,6.705,0.111,10.058,0.086
				c0.331-0.002,0.658-0.454,0.987-0.697c0.552-0.169,1.103-0.337,1.655-0.506c1.371,0.199,2.74,0.539,4.115,0.571
				C104.315,67.347,108.3,67.318,112.285,67.337z"/>
			<path fill="#F1E209" d="M46.937,67.35c-0.2-0.054-0.4-0.109-0.6-0.163c-0.001-2.033-0.001-4.066-0.001-6.622
				c-5.919,0-11.507,0-17.092-0.001c0.063-2.201,0.125-4.401,0.186-6.6c23.52,0.003,47.04,0.002,70.559,0.012
				c1.422,0.001,2.844,0.085,4.266,0.13c-0.024,2.157-0.047,4.315-0.071,6.473c-0.534,0.016-1.068,0.032-1.602,0.048
				c-1.399,0.004-2.798,0.006-4.198,0.009c-0.592,0-1.185,0-1.962,0c0.072,0.6,0.147,1.215,0.221,1.831c-0.827,0-1.655,0-2.585,0
				c0,0.619,0,1.653,0,2.686c-4.286,0-8.571,0-12.857,0c-0.943-0.306-2.489-1.107-2.72-0.827c-0.757,0.921-1.297,2.203-1.44,3.403
				c-0.234,1.972-0.092,3.988-0.109,5.986c-0.017,0.098-0.027,0.196-0.032,0.295c-1.602,0.002-3.203,0.004-4.805,0.007
				c-0.008-0.102-0.018-0.204-0.03-0.306c-0.525-0.173-1.049-0.347-1.574-0.52c-0.361-0.002-0.723-0.005-1.084-0.007
				c-0.347,0.177-0.693,0.355-1.04,0.532c-0.015,0.089-0.027,0.179-0.036,0.269c-1.726-0.227-3.452-0.454-5.179-0.681
				c-0.028-1.647-0.056-3.294-0.083-4.942c1.468-1.605,1.395-2.777-0.257-4.007c-0.485,0.938-0.969,1.875-1.453,2.812l0.043,0.175
				c-0.194-0.003-0.389-0.005-0.583-0.008c-0.182-0.064-0.363-0.128-0.545-0.192c-0.161,0.002-0.323,0.003-0.484,0.005
				C55.507,67.215,51.222,67.282,46.937,67.35z M71.578,64.289c-2.068-0.252-3.446,0.053-3.149,2.042
				c0.111,0.743,1.253,1.987,1.754,1.909C72.814,67.828,71.049,65.818,71.578,64.289z M60.99,64.821
				c-0.077-0.027-0.154-0.073-0.23-0.07c-0.026,0.001-0.048,0.123-0.071,0.19c0.077,0.027,0.154,0.073,0.23,0.07
				C60.945,65.01,60.966,64.887,60.99,64.821z"/>
			<path fill="#F1E314" d="M76.934,73.715c0.016-1.998-0.126-4.014,0.109-5.986c0.143-1.2,0.683-2.482,1.44-3.403
				c0.23-0.28,1.776,0.521,2.72,0.827c4.286,0,8.571,0,12.857,0c0-1.034,0-2.067,0-2.686c0.931,0,1.758,0,2.585,0
				c-0.142,1.405-0.285,2.81-0.427,4.215c-0.551,0.168-1.103,0.337-1.655,0.506c-0.178,0.055-0.353,0.047-0.526-0.023
				c-0.165-0.001-0.33-0.003-0.495-0.004c-4.12,0.002-8.239,0.004-12.359,0.005c-0.185-0.129-0.371-0.259-0.556-0.388
				c0,0,0.011,0.02,0.011,0.02c-0.597-0.166-1.544-0.655-1.735-0.448c-1.392,1.513-1.112,5.393,0.391,7.037
				C78.496,73.497,77.715,73.606,76.934,73.715z"/>
			<path fill="#D6D721" d="M104.185,60.578c0.023-2.158,0.047-4.316,0.071-6.473c2.264-0.011,4.528-0.023,6.79-0.034
				c-1.737,0.136-3.471,0.272-5.923,0.463c0,1.521,0.064,3.167-0.043,4.803C105.052,59.768,104.498,60.165,104.185,60.578z"/>
			<path fill="#D6D721" d="M98.385,60.635c1.399-0.003,2.799-0.005,4.198-0.009C101.183,60.629,99.784,60.632,98.385,60.635z"/>
			<path fill="#EDDE09" d="M76.934,73.715c0.781-0.109,1.562-0.218,2.359-0.329c-1.503-1.644-1.783-5.524-0.391-7.037
				c0.191-0.207,1.138,0.281,1.735,0.448c-0.268,0.297-0.771,0.597-0.767,0.891c0.025,2.014,0.155,4.027,0.252,6.04
				c-1.073,0.094-2.146,0.189-3.22,0.283C76.907,73.911,76.917,73.813,76.934,73.715z"/>
			<path fill="#7B3C15" d="M80.122,73.727c-0.097-2.013-0.227-4.026-0.252-6.04c-0.004-0.294,0.499-0.594,0.767-0.891
				c0,0-0.011-0.02-0.011-0.02c0.185,0.129,0.371,0.259,0.556,0.388c4.12-0.002,8.239-0.004,12.359-0.005c0,0,0.247,0.06,0.247,0.06
				l0.248-0.056c0.173,0.07,0.348,0.078,0.526,0.023c-0.329,0.243-0.656,0.694-0.987,0.697c-3.353,0.024-6.711,0.071-10.058-0.086
				c-2.221-0.105-3.038,0.743-2.895,2.925C80.687,71.709,80.303,72.725,80.122,73.727z"/>
			<path fill="#7B3C15" d="M46.937,67.35c4.285-0.068,8.57-0.135,12.854-0.203c0,0,0.243,0.052,0.243,0.052l0.242-0.057
				c0.182,0.064,0.363,0.128,0.545,0.192C56.193,67.339,51.565,67.345,46.937,67.35z"/>
			<path fill="#7B3C15" d="M63.072,68.362c0.028,1.647,0.055,3.294,0.083,4.942c-0.238-1.058-0.426-2.131-0.728-3.171
				c-0.276-0.949-0.677-1.862-1.023-2.791c0,0-0.042-0.175-0.043-0.175C61.932,67.565,62.502,67.964,63.072,68.362z"/>
			<path fill="#EDDE09" d="M72.068,73.71c0.012,0.102,0.022,0.204,0.03,0.306c-1.254-0.01-2.509-0.02-3.764-0.031
				c0.01-0.091,0.022-0.18,0.036-0.27c0.346-0.177,0.693-0.355,1.04-0.532c0.361,0.002,0.723,0.005,1.084,0.007
				C71.018,73.364,71.543,73.537,72.068,73.71z"/>
			<path fill="#F1E314" d="M71.578,64.289c-0.528,1.529,1.236,3.539-1.395,3.951c-0.501,0.078-1.643-1.165-1.754-1.909
				C68.132,64.342,69.51,64.037,71.578,64.289z"/>
			<path fill="#F1E314" d="M63.072,68.362c-0.57-0.398-1.14-0.797-1.71-1.195c0.484-0.937,0.968-1.874,1.453-2.812
				C64.467,65.585,64.539,66.757,63.072,68.362z"/>
			<path fill="#EDDE09" d="M94.059,65.153c-4.286,0-8.571,0-12.857,0C85.488,65.153,89.773,65.153,94.059,65.153z"/>
			<path fill="#F1E314" d="M72.068,73.71c-0.525-0.173-1.05-0.347-1.574-0.52C71.018,73.364,71.543,73.537,72.068,73.71z"/>
			<path fill="#F1E314" d="M69.41,73.184c-0.347,0.177-0.694,0.355-1.04,0.532C68.717,73.538,69.063,73.361,69.41,73.184z"/>
			<path fill="#F1E314" d="M60.99,64.821c-0.024,0.067-0.045,0.189-0.071,0.19c-0.076,0.003-0.153-0.043-0.23-0.07
				c0.024-0.067,0.045-0.19,0.071-0.19C60.836,64.748,60.913,64.794,60.99,64.821z"/>
			<path fill="#F1E314" d="M60.276,67.142l-0.242,0.057c0,0-0.243-0.052-0.243-0.052C59.953,67.145,60.114,67.144,60.276,67.142z"/>
			<path fill="#EDDE09" d="M94.036,67.164l-0.248,0.056c0,0-0.247-0.06-0.247-0.06C93.706,67.161,93.871,67.162,94.036,67.164z"/>
			<path fill="#EDDE09" d="M81.182,67.165c-0.185-0.129-0.371-0.259-0.556-0.388C80.812,66.906,80.997,67.036,81.182,67.165z"/>
		</g>
	</g>
</g>
</svg>
