<?xml version="1.0" encoding="utf-8"?>
<!-- Generator: Adobe Illustrator 17.0.0, SVG Export Plug-In . SVG Version: 6.00 Build 0)  -->
<!DOCTYPE svg PUBLIC "-//W3C//DTD SVG 1.1//EN" "http://www.w3.org/Graphics/SVG/1.1/DTD/svg11.dtd">
<svg version="1.1" id="Layer_1" xmlns="http://www.w3.org/2000/svg" xmlns:xlink="http://www.w3.org/1999/xlink" x="0px" y="0px"
	 width="168.017px" height="117.012px" viewBox="0 0 168.017 117.012" enable-background="new 0 0 168.017 117.012"
	 xml:space="preserve">
<text transform="matrix(1 0 0 1 12.4617 89.5926)" fill="#F9EC31" font-family="'StillTime-Regular'" font-size="88.6956">Creche</text>
<g>
	<g>
		
			<text transform="matrix(1 0 0 1 9.7166 87.4969)" fill="#EC297B" stroke="#D91C5C" font-family="'StillTime-Regular'" font-size="88.6956">Creche</text>
	</g>
	<defs>
		<filter id="Adobe_OpacityMaskFilter" filterUnits="userSpaceOnUse" x="18.53" y="18.45" width="153.126" height="86.644">
			
				<feColorMatrix  type="matrix" values="-1 0 0 0 1  0 -1 0 0 1  0 0 -1 0 1  0 0 0 1 0" color-interpolation-filters="sRGB" result="source"/>
		</filter>
	</defs>
	<mask maskUnits="userSpaceOnUse" x="18.53" y="18.45" width="153.126" height="86.644" id="SVGID_1_">
		<g filter="url(#Adobe_OpacityMaskFilter)">
			
				<image overflow="visible" width="158" height="91" xlink:href="B2669A5FB5F73D64.jpg"  transform="matrix(1 0 0 1 16.2166 16.1707)">
			</image>
		</g>
	</mask>
	<g opacity="0.32" mask="url(#SVGID_1_)">
		<path fill="#3B51A2" stroke="#3B51A2" d="M49.452,27.628c4.73,1.419,8.721,3.224,11.974,5.41l6.652-8.071
			c-10.821-3.193-22.085-5.145-33.793-5.854l-8.515,6.476c-2.248,5.321-3.933,10.525-5.056,15.61
			c-1.124,5.086-1.685,10.2-1.685,15.344c0,5.499,0.709,10.881,2.129,16.143c1.419,5.264,3.355,10.067,5.81,14.413
			c2.453,4.347,5.335,8.071,8.647,11.176c3.311,3.104,6.83,5.218,10.555,6.342c-2.838-1.301-5.5-3.489-7.983-6.563
			c-2.483-3.075-4.643-6.741-6.475-10.998c-1.833-4.258-3.282-8.943-4.346-14.059c-1.064-5.113-1.597-10.333-1.597-15.654
			c0-11.826,2.395-22.795,7.185-32.906C39.222,25.144,44.721,26.208,49.452,27.628z M86.969,79.16
			c-3.193,1.301-6.328,2.395-9.402,3.281l5.677-13.659c5.025-3.726,10.732-8.81,17.118-15.256c-0.829-1.714-1.804-3.354-2.927-4.922
			c-1.124-1.566-2.366-3.118-3.726-4.657l-7.539,0.443c-2.128,5.56-4.199,11.619-6.208,18.183c-1.224,3.994-2.425,8.243-3.604,12.74
			c-3.94,3.257-6.793,5.342-8.547,6.241c0.65-7.273,2.896-16.97,6.741-29.093l-5.411-5.056l0.443-9.579L54.418,69.758l13.571-17.473
			l2.395,2.395c-2.248,5.204-4.213,10.377-5.898,15.521c-1.685,5.145-3.179,10.408-4.479,15.788l5.322,5.145
			c3.193-3.548,6.045-6.903,8.559-10.067c0.513-0.646,1.003-1.284,1.487-1.922c-0.425,1.688-0.847,3.404-1.266,5.159l4.967,4.967
			c3.488-2.128,6.71-4.39,9.668-6.785c2.956-2.395,5.677-5.04,8.16-7.938C93.473,76.321,90.162,77.859,86.969,79.16z M91.404,49.89
			l2.927,1.33c-1.479,2.543-2.987,4.878-4.523,7.007c-1.539,2.129-3.104,4.08-4.701,5.854L91.404,49.89z M110.517,80.712
			c-3.104,1.272-6.52,2.292-10.245,3.06c0.59-2.364,1.359-5.113,2.306-8.248c0.945-3.134,1.921-6.209,2.927-9.225
			c1.005-3.016,1.98-5.75,2.927-8.204c0.945-2.453,1.714-4.153,2.306-5.101l8.426,3.104l1.064-10.022l-7.982-2.218
			c-1.184,1.952-2.587,4.657-4.213,8.116c-1.627,3.459-3.268,7.185-4.922,11.176c-1.656,3.991-3.208,7.953-4.657,11.885
			c-1.449,3.934-2.587,7.348-3.415,10.244l8.515,5.766c2.661-1.951,5.262-4.169,7.805-6.652c2.542-2.483,5.145-5.232,7.805-8.249
			C116.504,77.918,113.621,79.441,110.517,80.712z M148.256,82.441l5.677-13.659c5.025-3.726,10.732-8.81,17.118-15.256
			c-0.829-1.714-1.804-3.354-2.927-4.922c-1.124-1.566-2.366-3.118-3.726-4.657l-7.539,0.443c-2.128,5.56-4.199,11.619-6.208,18.183
			c-1.278,4.17-2.531,8.617-3.761,13.336c-2.997,2.48-5.681,4.227-8.035,5.202c5.38-11.234,9.668-22.498,12.861-33.793l-6.475-2.928
			c-4.79,5.56-9.047,10.94-12.772,16.143c-3.725,5.204-6.949,10.349-9.667,15.434c1.123-2.424,2.275-5.129,3.459-8.116
			c1.182-2.984,2.335-6.104,3.459-9.357c1.123-3.251,2.202-6.563,3.237-9.934c1.034-3.37,1.98-6.637,2.838-9.801
			c0.856-3.162,1.597-6.164,2.217-9.003c0.621-2.838,1.078-5.321,1.375-7.45l-5.765-3.104c-3.726,16.262-6.934,29.596-9.624,40.002
			c-2.691,10.408-4.894,17.917-6.608,22.528l1.242,6.563c1.005-1.951,2.202-4.108,3.592-6.475c1.389-2.364,2.867-4.803,4.435-7.317
			c1.566-2.513,3.163-5.011,4.79-7.494c1.626-2.483,3.222-4.834,4.79-7.052c1.566-2.218,3.045-4.227,4.435-6.031
			c1.389-1.803,2.616-3.296,3.681-4.479c-1.538,6.091-3.252,11.724-5.144,16.896c-1.893,5.175-3.903,9.979-6.032,14.413l4.169,7.628
			c3.016-2.66,5.676-5.335,7.982-8.026c0.215-0.251,0.411-0.505,0.62-0.757c-0.386,1.543-0.771,3.106-1.153,4.703l4.967,4.967
			c3.488-2.128,6.71-4.39,9.668-6.785c2.956-2.395,5.677-5.04,8.16-7.938c-3.43,1.773-6.741,3.312-9.934,4.612
			S151.33,81.555,148.256,82.441z M162.093,49.89l2.927,1.33c-1.479,2.543-2.987,4.878-4.523,7.007
			c-1.539,2.129-3.104,4.08-4.701,5.854L162.093,49.89z"/>
	</g>
</g>
</svg>
