<?xml version="1.0" encoding="utf-8"?>
<!-- Generator: Adobe Illustrator 17.0.0, SVG Export Plug-In . SVG Version: 6.00 Build 0)  -->
<!DOCTYPE svg PUBLIC "-//W3C//DTD SVG 1.1//EN" "http://www.w3.org/Graphics/SVG/1.1/DTD/svg11.dtd">
<svg version="1.1" id="Layer_1" xmlns="http://www.w3.org/2000/svg" xmlns:xlink="http://www.w3.org/1999/xlink" x="0px" y="0px"
	 width="139.667px" height="94px" viewBox="0 0 139.667 94" enable-background="new 0 0 139.667 94" xml:space="preserve">
<text transform="matrix(1 0 0 1 -6.0883 74.4219)" fill="#999999" font-family="'StillTime-Regular'" font-size="88.6956">Creche</text>
<g>
	<g>
		<text transform="matrix(1 0 0 1 -4.1667 74.4216)" font-family="'StillTime-Regular'" font-size="88.6956">Creche</text>
	</g>
	<defs>
		<filter id="Adobe_OpacityMaskFilter" filterUnits="userSpaceOnUse" x="5.146" y="6.037" width="152.021" height="85.503">
			
				<feColorMatrix  type="matrix" values="-1 0 0 0 1  0 -1 0 0 1  0 0 -1 0 1  0 0 0 1 0" color-interpolation-filters="sRGB" result="source"/>
		</filter>
	</defs>
	<mask maskUnits="userSpaceOnUse" x="5.146" y="6.037" width="152.021" height="85.503" id="SVGID_1_">
		<g filter="url(#Adobe_OpacityMaskFilter)">
			<image overflow="visible" width="157" height="90" xlink:href="93942B18A00BA783.jpg"  transform="matrix(1 0 0 1 2.6667 4)">
			</image>
		</g>
	</mask>
	<g opacity="0.32" mask="url(#SVGID_1_)">
		<path fill="#3B51A2" d="M35.569,14.553c4.73,1.419,8.721,3.224,11.974,5.41l6.652-8.071C43.374,8.698,32.11,6.747,20.402,6.037
			l-8.515,6.476c-2.248,5.321-3.933,10.525-5.056,15.61c-1.124,5.086-1.685,10.2-1.685,15.344c0,5.499,0.709,10.881,2.129,16.143
			c1.419,5.264,3.355,10.067,5.81,14.413c2.453,4.347,5.335,8.071,8.647,11.176c3.311,3.104,6.83,5.218,10.555,6.342
			c-2.838-1.301-5.5-3.489-7.983-6.563c-2.483-3.075-4.643-6.741-6.475-10.998c-1.833-4.258-3.282-8.943-4.346-14.059
			c-1.064-5.113-1.597-10.333-1.597-15.654c0-11.826,2.395-22.795,7.185-32.906C25.339,12.069,30.838,13.133,35.569,14.553z
			 M73.086,66.085c-3.193,1.301-6.328,2.395-9.402,3.281l5.677-13.659c5.025-3.726,10.732-8.81,17.118-15.256
			c-0.829-1.714-1.804-3.354-2.927-4.922c-1.124-1.566-2.366-3.118-3.726-4.657l-7.539,0.443c-2.128,5.56-4.199,11.619-6.208,18.183
			c-1.224,3.994-2.425,8.243-3.604,12.74c-3.94,3.257-6.793,5.342-8.547,6.241c0.65-7.273,2.896-16.97,6.741-29.093l-5.411-5.056
			l0.443-9.579L40.535,56.683L54.106,39.21l2.395,2.395c-2.248,5.204-4.213,10.377-5.898,15.521
			c-1.685,5.145-3.179,10.408-4.479,15.788l5.322,5.145c3.193-3.548,6.045-6.903,8.559-10.067c0.513-0.646,1.003-1.284,1.487-1.922
			c-0.425,1.688-0.847,3.404-1.266,5.159l4.967,4.967c3.488-2.128,6.71-4.39,9.668-6.785c2.956-2.395,5.677-5.04,8.16-7.938
			C79.59,63.246,76.278,64.784,73.086,66.085z M77.52,36.815l2.927,1.33c-1.479,2.543-2.987,4.878-4.523,7.007
			c-1.539,2.129-3.104,4.08-4.701,5.854L77.52,36.815z M96.634,67.637c-3.104,1.272-6.52,2.292-10.245,3.06
			c0.59-2.364,1.359-5.113,2.306-8.248c0.945-3.134,1.921-6.209,2.927-9.225c1.005-3.016,1.98-5.75,2.927-8.204
			c0.945-2.453,1.714-4.153,2.306-5.101l8.426,3.104l1.064-10.022l-7.982-2.218c-1.184,1.952-2.587,4.657-4.213,8.116
			c-1.627,3.459-3.268,7.185-4.922,11.176c-1.656,3.991-3.208,7.953-4.657,11.885c-1.449,3.934-2.587,7.348-3.415,10.244
			l8.515,5.766c2.661-1.951,5.262-4.169,7.805-6.652c2.542-2.483,5.145-5.232,7.805-8.249
			C102.621,64.843,99.738,66.366,96.634,67.637z M134.373,69.366l5.677-13.659c5.025-3.726,10.732-8.81,17.118-15.256
			c-0.829-1.714-1.804-3.354-2.927-4.922c-1.124-1.566-2.366-3.118-3.726-4.657l-7.539,0.443c-2.128,5.56-4.199,11.619-6.208,18.183
			c-1.278,4.17-2.531,8.617-3.761,13.336c-2.997,2.48-5.681,4.227-8.035,5.202c5.38-11.234,9.668-22.498,12.861-33.793l-6.475-2.928
			c-4.79,5.56-9.047,10.94-12.772,16.143c-3.725,5.204-6.949,10.349-9.667,15.434c1.123-2.424,2.275-5.129,3.459-8.116
			c1.182-2.984,2.335-6.104,3.459-9.357c1.123-3.251,2.202-6.563,3.237-9.934c1.034-3.37,1.98-6.637,2.838-9.801
			c0.856-3.162,1.597-6.164,2.217-9.003c0.621-2.838,1.078-5.321,1.375-7.45l-5.765-3.104c-3.726,16.262-6.934,29.596-9.624,40.002
			c-2.691,10.408-4.894,17.917-6.608,22.528l1.242,6.563c1.005-1.951,2.202-4.108,3.592-6.475c1.389-2.364,2.867-4.803,4.435-7.317
			c1.566-2.513,3.163-5.011,4.79-7.494c1.626-2.483,3.222-4.834,4.79-7.052c1.566-2.218,3.045-4.227,4.435-6.031
			c1.389-1.803,2.616-3.296,3.681-4.479c-1.538,6.091-3.252,11.724-5.144,16.896c-1.893,5.175-3.903,9.979-6.032,14.413l4.169,7.628
			c3.016-2.66,5.676-5.335,7.982-8.026c0.215-0.251,0.411-0.505,0.62-0.757c-0.386,1.543-0.771,3.106-1.153,4.703l4.967,4.967
			c3.488-2.128,6.71-4.39,9.668-6.785c2.956-2.395,5.677-5.04,8.16-7.938c-3.43,1.773-6.741,3.312-9.934,4.612
			S137.447,68.479,134.373,69.366z M148.209,36.815l2.927,1.33c-1.479,2.543-2.987,4.878-4.523,7.007
			c-1.539,2.129-3.104,4.08-4.701,5.854L148.209,36.815z"/>
	</g>
</g>
</svg>
